<?xml version="1.0" encoding="UTF-8"?><svg xmlns="http://www.w3.org/2000/svg" viewBox="0 0 640 480"><defs><style>.cls-1{font-size:36px;}.cls-1,.cls-2,.cls-3,.cls-4{fill:#231f20;}.cls-1,.cls-5{font-family:Silom, Silom;}.cls-6,.cls-7{letter-spacing:2.32em;}.cls-6,.cls-8,.cls-9,.cls-10{fill:#a96dae;}.cls-7,.cls-11,.cls-12{fill:#f26522;}.cls-13{fill:#fbb040;}.cls-14{fill:#ef4136;}.cls-15{fill:#c2b59b;}.cls-16{fill:#caa8cf;}.cls-17,.cls-18{fill:#1c75bc;}.cls-19{fill:#414042;}.cls-18,.cls-3,.cls-10{font-size:12px;}.cls-4,.cls-9,.cls-12,.cls-20{font-size:14px;}.cls-10{letter-spacing:2.75em;}.cls-21{fill:#be1e2d;}.cls-21,.cls-22{font-size:21px;}.cls-22{fill:#662d91;}</style></defs><g id="Background"><rect class="cls-15" width="640" height="480"/><path class="cls-13" d="M35.71,78.05c13.85-2.12,27.84-3.28,41.85-3.52,3.21-.06,3.22-5.06,0-5-14.46,.26-28.88,1.51-43.18,3.7-1.34,.2-2.07,1.88-1.75,3.08,.39,1.43,1.74,1.95,3.08,1.75h0Z"/><path class="cls-13" d="M22.9,95.26c20.1-1.78,40.25-3.03,60.42-3.75,20.08-.71,40.19-.9,60.28-.55,11.33,.2,22.66,.56,33.97,1.09,2.75,.1,5.32-.47,7.71-1.72,2.48-.81,4.63-2.19,6.44-4.14,1.95-1.81,3.33-3.96,4.14-6.44,1.25-2.38,1.83-4.95,1.72-7.71-.23-5.17-1.93-10.54-5.86-14.14l-4.05-3.13c-3.12-1.81-6.48-2.72-10.09-2.73-20.16-.94-40.34-1.36-60.52-1.24-20.1,.12-40.19,.77-60.25,1.95-11.31,.67-22.61,1.5-33.9,2.5-2.75-.1-5.32,.47-7.71,1.72-2.48,.81-4.63,2.19-6.44,4.14-1.95,1.81-3.33,3.96-4.14,6.44-1.25,2.38-1.83,4.95-1.72,7.71,.23,5.17,1.93,10.54,5.86,14.14,3.71,3.41,8.92,6.32,14.14,5.86h0Z"/><path class="cls-16" d="M22.41,277.26c26.93-2.14,53.9-3.76,80.89-4.86s54-1.67,81.02-1.71c15.25-.03,30.49,.12,45.74,.42,2.75,.1,5.32-.47,7.71-1.72,2.48-.81,4.63-2.19,6.44-4.14,1.95-1.81,3.33-3.96,4.14-6.44,1.25-2.38,1.83-4.95,1.72-7.71-.23-5.17-1.93-10.54-5.86-14.14s-8.69-5.75-14.14-5.86c-27.01-.54-54.03-.57-81.04-.06-27.01,.5-54.01,1.53-80.98,3.08-15.22,.88-30.43,1.92-45.63,3.13-2.75-.1-5.32,.47-7.71,1.72-2.48,.81-4.63,2.19-6.44,4.14-1.95,1.81-3.33,3.96-4.14,6.44-1.25,2.38-1.83,4.95-1.72,7.71,.23,5.17,1.93,10.54,5.86,14.14s8.9,6.27,14.14,5.86h0Z"/></g><g id="Text"><text class="cls-5"><tspan class="cls-21"><tspan x="10.17" y="80.49">Contributers</tspan></tspan><tspan class="cls-20"><tspan class="cls-7" x="10.17" y="114.09">	</tspan><tspan class="cls-14" x="46.17" y="114.09">Andrew</tspan><tspan class="cls-2" x="104.52" y="114.09" xml:space="preserve"> - </tspan><tspan class="cls-19" x="119.68" y="114.09">Programming, Art</tspan></tspan><tspan class="cls-20"><tspan class="cls-7" x="10.17" y="147.69">	</tspan><tspan class="cls-14" x="46.17" y="147.69">Noah</tspan><tspan class="cls-2" x="84.68" y="147.69" xml:space="preserve"> - </tspan><tspan class="cls-19" x="99.84" y="147.69">SFX, Music</tspan></tspan><tspan class="cls-20"><tspan class="cls-7" x="10.17" y="181.29">	</tspan><tspan class="cls-14" x="46.17" y="181.29">Zach</tspan><tspan class="cls-2" x="82.34" y="181.29" xml:space="preserve"> - </tspan><tspan class="cls-19" x="97.5" y="181.29">Programming, Tutorial</tspan></tspan><tspan class="cls-22"><tspan x="10.17" y="256.89">Open Source Assets</tspan></tspan><tspan class="cls-10" x="10.17" y="290.49">	</tspan><tspan class="cls-9" x="46.17" y="290.49">Combat Background:</tspan><tspan class="cls-3" x="202.54" y="290.49"> </tspan><tspan class="cls-12" x="205.54" y="290.49">Nidhoggn</tspan><tspan class="cls-3" x="276.73" y="290.49"> </tspan><tspan class="cls-4" x="279.73" y="290.49">@</tspan><tspan class="cls-3" x="292.57" y="290.49"> </tspan><tspan class="cls-18" x="295.57" y="290.49">https://opengameart.org/content/backgrounds-3</tspan><tspan class="cls-20"><tspan class="cls-6" x="10.17" y="321.69">	</tspan><tspan class="cls-8" x="46.17" y="321.69">Tileset:</tspan><tspan class="cls-2" x="100.99" y="321.69"> </tspan><tspan class="cls-11" x="104.49" y="321.69">Limezu</tspan><tspan class="cls-2" x="159.33" y="321.69" xml:space="preserve"> @ </tspan><tspan class="cls-17" x="179.17" y="321.69">https://limezu.itch.io/serenevillagerevamped</tspan></tspan><tspan class="cls-20"><tspan class="cls-6" x="10.17" y="355.29">	</tspan><tspan class="cls-8" x="46.17" y="355.29">Player sprite:</tspan><tspan class="cls-2" x="148.84" y="355.29"> </tspan><tspan class="cls-11" x="152.34" y="355.29">Limezu</tspan><tspan class="cls-2" x="207.18" y="355.29" xml:space="preserve"> @ </tspan><tspan class="cls-17" x="227.02" y="355.29">https://limezu.itch.io/moderninteriors</tspan></tspan><tspan class="cls-20"><tspan class="cls-6" x="10.17" y="388.89">	</tspan><tspan class="cls-8" x="46.17" y="388.89">Slime sprites: </tspan><tspan class="cls-11" x="152.31" y="388.89">Teaveel</tspan><tspan class="cls-2" x="210.67" y="388.89" xml:space="preserve"> @ </tspan><tspan class="cls-17" x="230.5" y="388.89">https://teaveel.itch.io/slime-pixel-set</tspan></tspan></text><text class="cls-1" transform="translate(253.7 40.35)"><tspan x="0" y="0">CREDITS</tspan></text></g></svg>