<svg xmlns="http://www.w3.org/2000/svg" viewBox="0 0 641 481"><defs><style>.cls-1{fill:#c2b59b;stroke:#fff200;stroke-miterlimit:10;}.cls-2{fill:#fff200;}.cls-3{font-size:75px;font-family:AdornBanners, Adorn Banners;}.cls-3,.cls-4{fill:#231f20;}.cls-4{font-size:36px;font-family:Silom;}</style></defs><g id="Background"><rect class="cls-1" x="0.5" y="0.5" width="640" height="480"/></g><g id="Color"><path class="cls-2" d="M386.44,74.29c3.22,0,3.22-5,0-5s-3.22,5,0,5Z"/><path class="cls-2" d="M386,87.41l78.49-.16,22,0a20.65,20.65,0,0,0,14.14-5.86,15,15,0,0,0,4.14-6.44,15.1,15.1,0,0,0,1.72-7.7c-.23-5.18-1.93-10.54-5.86-14.15a20.73,20.73,0,0,0-14.14-5.85L408,47.37l-22,0a20.66,20.66,0,0,0-14.14,5.86,15,15,0,0,0-4.14,6.44,15.1,15.1,0,0,0-1.72,7.7c.23,5.17,1.93,10.54,5.86,14.14A20.76,20.76,0,0,0,386,87.41Z"/><path class="cls-2" d="M376.12,46.42l-87.33.73c-14.58.12-29.16.17-43.74.47-7.29.16-14.57.39-21.85.76s-14.51,1.13-21.78,1.3c-8.07.19-16-1.06-24-1.79A201,201,0,0,0,153,47.2,12.53,12.53,0,0,0,140.7,58a12,12,0,0,0,1.48,8,12.87,12.87,0,0,0,7.47,5.74,55.52,55.52,0,0,0,17.23,1.51c5-.31,9.91-1.09,14.86-1.63,10.07-1.08,20.22-.5,30.32-.18l17.51.55a12.5,12.5,0,0,0,0-25c-9.61-.3-19.22-.65-28.84-.9-4.74-.13-9.49-.18-14.22.12s-9.32,1-14,1.52A63.83,63.83,0,0,1,157.1,48l3.32.44a36.13,36.13,0,0,1-4.12-.81L153,72.2a200.28,200.28,0,0,1,21.5.45c7.18.54,14.31,1.71,21.51,2s14.52-.5,21.76-1,14.56-.75,21.84-1c29.15-.78,58.33-.67,87.48-.92l49.06-.41A13,13,0,0,0,385,67.76a12.51,12.51,0,0,0,0-17.68,12.93,12.93,0,0,0-8.84-3.66Z"/><path class="cls-2" d="M143.36,67.36c-1.32.64-2.63,1.31-4,1.92l3-1.26a2.59,2.59,0,0,1-.66.18l3.33-.44h-.22l3.33.45-.2,0,3,1.26-.18-.11,2.53,2-.13-.14,2,2.53-.09-.17,1.26,3a1.37,1.37,0,0,1-.09-.4l.45,3.33A25.89,25.89,0,0,1,157,74.5l-.45,3.32a40.84,40.84,0,0,1,2.5-9.47,9.52,9.52,0,0,0,.22-5,9.25,9.25,0,0,0-1.48-4.64,9.46,9.46,0,0,0-3.22-3.51A9.39,9.39,0,0,0,150.29,53a12.65,12.65,0,0,0-9.63,1.26l-2.53,2a12.52,12.52,0,0,0-3.22,5.51,50.9,50.9,0,0,0-3.16,14.89,23.83,23.83,0,0,0-.11,2.8,17.4,17.4,0,0,0,.54,3.71l1.26,3a5.48,5.48,0,0,0,1.06,1.43,10.13,10.13,0,0,0,1.11,1.41l2.53,1.95a6.32,6.32,0,0,0,1.68.74,6.53,6.53,0,0,0,1.69.69l3.32.44a6.33,6.33,0,0,0,1.88-.22,17.69,17.69,0,0,0,2.1-.32A23.64,23.64,0,0,0,153,90.38L156,89a9.46,9.46,0,0,0,3.51-3.22A11.2,11.2,0,0,0,162,76.49a9.35,9.35,0,0,0-1.48-4.64A12.66,12.66,0,0,0,153,66.1l-3.33-.44a12.4,12.4,0,0,0-6.31,1.7Z"/><path class="cls-2" d="M159.51,85.88l82.3,1.86c13.85.31,27.69.69,41.54.93a164.52,164.52,0,0,0,20.22-1,121.42,121.42,0,0,1,20-.29L369.76,90a12.5,12.5,0,0,0,8.84-21.34A13.64,13.64,0,0,0,369.76,65l-41-2.26c-6.78-.38-13.59-1-20.37-.46s-13.2,1.41-19.88,1.44c-13.82.08-27.66-.53-41.47-.84l-41.35-.94-46.18-1a12.5,12.5,0,0,0,0,25Z"/><path class="cls-2" d="M134.18,70.64A109.65,109.65,0,0,0,88.47,94.45a36.4,36.4,0,0,0-8.69,10.49c-1.83,3.59-3.35,7.83-2.1,11.89A13.62,13.62,0,0,0,87.45,126c10.84,2.9,20.08-5.31,28.32-11,7.81-5.4,15.52-11.43,24.3-15.18l-2.38,1a35.63,35.63,0,0,1,8.52-2.44l-2.65.36a26,26,0,0,1,6.71,0l-2.65-.35.42.06-6-14.69a12.66,12.66,0,0,0-1.69,12.42c2.23,5.28,8.07,8.63,13.79,6.86l-11.3-14.69-1.56,2c-1.41,1.84-1.69,5.59-1,7.71a10.4,10.4,0,0,0,3.59,5.19,10,10,0,0,0,13.13-.78l.16-.15-7.07,2.93.22,0-2.66-.36.22.09-4.41-2.57.19.17-1.56-2,.12.23-1.37-5.05V96l1.36-5-.12.27,1.56-2-.21.22,2-1.56a2.05,2.05,0,0,1-.56.31l2.39-1a22.17,22.17,0,0,1-4.26,1l2.66-.36a24.9,24.9,0,0,1-6.28,0l2.66.36A24.83,24.83,0,0,1,137.28,87l-2.66,19.65,13.16,1.18a15.1,15.1,0,0,0,6.44-.75,13.2,13.2,0,0,0,5.43-3.38,12.5,12.5,0,0,0,3.21-8.06,10,10,0,0,0-10-10,10.23,10.23,0,0,0-10,10l0,.28.36-2.66a1.71,1.71,0,0,1-.14.49l1-2.39-.12.22,1.56-2a2.72,2.72,0,0,1-.54.53l2-1.56a3.72,3.72,0,0,1-.48.27l2.39-1a6.49,6.49,0,0,1-1.45.4l2.66-.36c-2.35.28-4.85-.23-7.2-.44l-8.29-.74a10,10,0,0,0-7.07,2.92,10.34,10.34,0,0,0-2.75,5.75c-.68,5.1,2.41,9.3,7.17,11a33.89,33.89,0,0,0,17.95.89c5.26-1.08,10-4.14,10.76-9.87a10.5,10.5,0,0,0-17.81-9l15.7,12.12,1.56-2,1-2.39.36-2.66a10.14,10.14,0,0,0-12.66-9.64l-.3.09,2.66-.36h-.3l2.66.36-.29-.07,2.39,1a1.51,1.51,0,0,1-.53-.32l2,1.57-.23-.23,1.57,2a1.91,1.91,0,0,1-.34-.56l1,2.39-.1-.32.36,2.66a1.94,1.94,0,0,1,0-.72l-.36,2.66a3.29,3.29,0,0,1,.21-.76l-1,2.39a10.24,10.24,0,0,1,1.08-1.73c1.86-2.48,1.63-6.23.51-8.9s-3.52-5.36-6.48-5.79a38.37,38.37,0,0,0-7.93-.58,42.76,42.76,0,0,0-8,1.26,56.59,56.59,0,0,0-12.7,5.33c-7.35,4.06-14.13,9.21-21,14-3.89,2.69-7.72,5.83-12.06,7.77l2.39-1a14.37,14.37,0,0,1-3.58,1l2.66-.35a11,11,0,0,1-2,0l2.66.35a9,9,0,0,1-2-.52l2.39,1a5.57,5.57,0,0,1-.92-.52l2,1.56a2.32,2.32,0,0,1-.5-.49l1.56,2a2.38,2.38,0,0,1-.34-.65l1,2.39-.09-.37.36,2.65a2.83,2.83,0,0,1,0-.77l-.35,2.66a8.45,8.45,0,0,1,.55-1.92l-1,2.39a21.5,21.5,0,0,1,2.69-4.58l-1.57,2a51.09,51.09,0,0,1,9.14-8.55l-2,1.56a101.1,101.1,0,0,1,22.16-12.92l-2.39,1a101.84,101.84,0,0,1,15-5c5.08-1.25,8.61-7.26,7-12.3a10.2,10.2,0,0,0-12.3-7Z"/><path class="cls-2" d="M146.25,72c5.23,0,10.24-4.6,10-10a10.18,10.18,0,0,0-10-10c-5.24,0-10.25,4.6-10,10a10.17,10.17,0,0,0,10,10Z"/><path class="cls-2" d="M136.62,61.93a9.07,9.07,0,0,1-.06,1l.35-2.66a7.82,7.82,0,0,1-.45,1.64l1-2.39a9.27,9.27,0,0,1-1,1.78l1.56-2a11.42,11.42,0,0,1-2,2l2-1.56a14.44,14.44,0,0,1-2.49,1.45l2.38-1a17.28,17.28,0,0,1-4.36,1.13L136.2,61a68.38,68.38,0,0,1-6.87.29,48.71,48.71,0,0,0-8.16.79,24.47,24.47,0,0,0-7.06,2.59,20.75,20.75,0,0,0-7,6.64c-1.42,2-1.64,5.4-1,7.7a10.18,10.18,0,0,0,4.6,6,10.08,10.08,0,0,0,7.7,1,11.24,11.24,0,0,0,6-4.6c.13-.2.27-.39.42-.58l-1.56,2a10.71,10.71,0,0,1,1.52-1.49l-2,1.56a13.57,13.57,0,0,1,2.8-1.59l-2.38,1a19.67,19.67,0,0,1,4.28-1.11l-2.66.36a72.65,72.65,0,0,1,7.81-.34c3.36-.08,7-.29,10.17-1.52,3.36-1.3,6.7-3,9.09-5.81a18.28,18.28,0,0,0,4.8-11.93c0-5.23-4.63-10.24-10-10a10.18,10.18,0,0,0-10,10Z"/><path class="cls-2" d="M117.81,81.3c5.23,0,10.25-4.6,10-10a10.18,10.18,0,0,0-10-10c-5.23,0-10.24,4.6-10,10a10.18,10.18,0,0,0,10,10Z"/><path class="cls-2" d="M116.59,80.08c.22.07.44.13.67.18l.33.06c.94.14,1.89.27,2.83.38a7.4,7.4,0,0,0,1.33,0,21.75,21.75,0,0,0,3.85-.53,22.22,22.22,0,0,0,3.57-1.39A7.59,7.59,0,0,0,132,76.24a7.55,7.55,0,0,0,1.79-3.4,7.63,7.63,0,0,0,.18-4,7.4,7.4,0,0,0-1.19-3.71l-1.56-2a10,10,0,0,0-4.42-2.57l-2.65-.36a10,10,0,0,0-5,1.37l-.08,0,2.39-1a7.49,7.49,0,0,1-1.74.48l2.66-.36a8,8,0,0,1-1.89,0l2.66.35a6.58,6.58,0,0,1-1.17-.25,7.53,7.53,0,0,0-4-.18,7.47,7.47,0,0,0-3.72,1.19,7.56,7.56,0,0,0-2.81,2.57,7.6,7.6,0,0,0-1.79,3.4l-.35,2.66a9.94,9.94,0,0,0,1.36,5l1.57,2a9.9,9.9,0,0,0,4.41,2.57Z"/><path class="cls-2" d="M103.59,80.12c-4.42.15-9.08.33-13.28,1.79a21.42,21.42,0,0,0-8.14,4.59,13.13,13.13,0,0,0-3.33,5.61,23.39,23.39,0,0,0-.44,4.94l.36-2.66a2.55,2.55,0,0,1-.15.54l1-2.39a5.11,5.11,0,0,1-.61,1l1.57-2A22,22,0,0,0,76.72,97a11.06,11.06,0,0,0-1,5.09,42.48,42.48,0,0,0,.86,4.79l-.35-2.66a13.44,13.44,0,0,1-.09,3l.36-2.65c-.34,2.31-.76,4.62-1.15,6.93a33.55,33.55,0,0,1-1.22,6.39l1-2.39a2.57,2.57,0,0,1-.36.62l1.57-2a22.63,22.63,0,0,0-2.82,3.41,12.44,12.44,0,0,0-1.63,6.27,12.82,12.82,0,0,0,.75,4.09,8.73,8.73,0,0,1,.61,2l-.35-2.66a2,2,0,0,1,0,.55l.36-2.65a1.73,1.73,0,0,1-.17.53c-.91,2.24-.16,5.71,1,7.7A10,10,0,0,0,87.74,137l2-1.56A10.13,10.13,0,0,0,92.34,131a11.85,11.85,0,0,0,0-7.24,16.81,16.81,0,0,1-.82-2.58l.35,2.65a2.54,2.54,0,0,1,0-.55l-.35,2.66a1.91,1.91,0,0,1,.16-.53l-1,2.39.17-.29-1.56,2A27.45,27.45,0,0,0,92.22,126a13.33,13.33,0,0,0,1.56-4.1c.39-2.07.69-4.16,1-6.23.47-2.78,1-5.56,1.3-8.37a23.58,23.58,0,0,0-.78-7.83l.36,2.66a2.12,2.12,0,0,1,0-.71L95.34,104a2.4,2.4,0,0,1,.16-.52l-1,2.39a5.71,5.71,0,0,1,.43-.72l-1.56,2A46.36,46.36,0,0,0,96.69,103a10.8,10.8,0,0,0,1.53-4.64c.16-1.14.11-2.12.19-3.25l-.36,2.66a2,2,0,0,1,.21-.68l-1,2.39a2.65,2.65,0,0,1,.38-.6l-1.56,2a5.72,5.72,0,0,1,.81-.75l-2,1.56A12.24,12.24,0,0,1,97,100.57l-2.39,1a23,23,0,0,1,5.47-1.4l-2.65.36c2-.26,4.1-.35,6.16-.42a10.49,10.49,0,0,0,7.07-2.93,10.2,10.2,0,0,0,2.93-7.07c-.24-5.27-4.4-10.19-10-10Z"/><path class="cls-2" d="M88.89,101.4c5.23,0,10.24-4.6,10-10a10.17,10.17,0,0,0-10-10c-5.23,0-10.24,4.6-10,10a10.18,10.18,0,0,0,10,10Z"/><path class="cls-2" d="M92.32,100.42c5.23,0,10.25-4.6,10-10a10.17,10.17,0,0,0-10-10c-5.23,0-10.24,4.6-10,10a10.18,10.18,0,0,0,10,10Z"/><path class="cls-2" d="M122.23,127.87c5.23,0,10.24-4.6,10-10a10.18,10.18,0,0,0-10-10c-5.24,0-10.25,4.6-10,10a10.17,10.17,0,0,0,10,10Z"/><path class="cls-2" d="M122.72,122.48c5.23,0,10.24-4.6,10-10a10.18,10.18,0,0,0-10-10c-5.24,0-10.25,4.6-10,10a10.17,10.17,0,0,0,10,10Z"/><path class="cls-2" d="M110,131.3c5.23,0,10.24-4.6,10-10a10.18,10.18,0,0,0-10-10c-5.23,0-10.24,4.6-10,10a10.17,10.17,0,0,0,10,10Z"/><path class="cls-2" d="M494.28,85.18c7,.54,14,.81,21,1.69l-2.66-.36a22.58,22.58,0,0,1,5.44,1.35l-2.39-1a13.6,13.6,0,0,1,2.74,1.59l-2-1.57a14.7,14.7,0,0,1,2.24,2.29l-1.56-2a67.28,67.28,0,0,1,4.31,7.28,68,68,0,0,0,6.07,8.73,39.65,39.65,0,0,0,7.55,7c2.9,2.14,6.25,3.25,9.55,4.63l-2.39-1a9.37,9.37,0,0,1,1.76,1l-2-1.57a6.47,6.47,0,0,1,.73.75l-1.56-2a6.41,6.41,0,0,1,.54.91l-1-2.39a4.12,4.12,0,0,1,.26,1l-.35-2.66a3,3,0,0,1,0,.67l.36-2.66a3,3,0,0,1-.19.65l1-2.39a2.65,2.65,0,0,1-.38.6l1.56-2a3.46,3.46,0,0,1-.52.49l2-1.57a7.47,7.47,0,0,1-1.3.71l2.39-1a24.59,24.59,0,0,1-5.41,1.33l2.66-.36a27.77,27.77,0,0,1-6.57,0l2.65.36a26.79,26.79,0,0,1-6.35-1.67l-2.66-.36a7.65,7.65,0,0,0-3.86.86,9.56,9.56,0,0,0-4.78,4.09,11.85,11.85,0,0,0-1.36,5.05,10,10,0,0,0,2.93,7.07,4.88,4.88,0,0,1,.66.7l-1.56-2a3.7,3.7,0,0,1,.31.55l-1-2.39a5.26,5.26,0,0,1,.29.93l-.36-2.66a5.06,5.06,0,0,1,0,1.29l.36-2.66a5.76,5.76,0,0,1-.28.92l1-2.39a3.16,3.16,0,0,1-.33.56l1.57-2-.21.26a11.13,11.13,0,0,0-2.75,5.74,9.59,9.59,0,0,0,1.19,6.37c2.36,3.66,6.94,5.94,11.29,4.6a16.87,16.87,0,0,0,11.43-12.1,20.25,20.25,0,0,0-2.68-15.86,43.23,43.23,0,0,0-9.1-9.56c-4-3.26-8.23-6.48-13.34-7.69a22.73,22.73,0,0,0-10.69,0c-2.16.5-4.22,1.35-6.42,1.67l2.65-.35a10.59,10.59,0,0,1-2,0l2.65.35a8.2,8.2,0,0,1-1.54-.36l-2.66-.36a7.61,7.61,0,0,0-3.85.86,9.56,9.56,0,0,0-4.78,4.09,11.9,11.9,0,0,0-1.37,5c-.12,2.75,1.28,5.06,2.93,7.07l.23.28-1.57-2a5.62,5.62,0,0,1,.53.92l-1-2.39a6.34,6.34,0,0,1,.36,1.36l-.36-2.66a6.74,6.74,0,0,1,0,1.42l.36-2.66a7.74,7.74,0,0,1-.28,1l1-2.39a6.34,6.34,0,0,1-.51.92,10,10,0,0,0,8.63,15,48.75,48.75,0,0,0,12.94-.1,24.47,24.47,0,0,0,11.87-5.62,18.36,18.36,0,0,0,6.34-10.86,27.08,27.08,0,0,0-.2-9.37c-.3-1.74-.76-3.45-1-5.2l.36,2.66a15.13,15.13,0,0,1-.07-3.62l-.35,2.66a9.2,9.2,0,0,1,.62-2.37l-1,2.39a9.25,9.25,0,0,1,.68-1.18l-1.57,2a7,7,0,0,1,1.22-1.22l-2,1.56a6.74,6.74,0,0,1,1.18-.64l-2.39,1a8,8,0,0,1,1.28-.33l-2.66.36a8.11,8.11,0,0,1,2,0l-2.66-.36a10.21,10.21,0,0,1,2,.57l-2.39-1a11.73,11.73,0,0,1,2.47,1.44l-2-1.56A13.15,13.15,0,0,1,528,81.25l-1.56-2A47.69,47.69,0,0,1,530.71,87a40.28,40.28,0,0,0,14.67,15.9c2.63,1.68,5.42,3.12,7.91,5l-2-1.57a18.26,18.26,0,0,1,3.1,3l-1.56-2a15.17,15.17,0,0,1,1.73,3l-1-2.39a12.09,12.09,0,0,1,.71,2.5l-.36-2.66a9.35,9.35,0,0,1,0,2.18l.36-2.66a8.81,8.81,0,0,1-.56,2.07l1-2.39a8.27,8.27,0,0,1-.92,1.57l1.57-2A9.16,9.16,0,0,1,553.9,108l2-1.56a12,12,0,0,1-2.35,1.37l2.39-1a20.28,20.28,0,0,1-5,1.3l2.66-.35a63.25,63.25,0,0,1-8.26.32l-10.93,0c-5.23,0-10.24,4.6-10,10a10.17,10.17,0,0,0,10,10c5,0,9.92.07,14.88,0A35.08,35.08,0,0,0,563.81,125a17.79,17.79,0,0,0,9.93-13.72c.87-6.53-2-13.06-6.62-17.6-4.14-4.06-9.5-6.27-14-9.74l2,1.57a31.52,31.52,0,0,1-5.52-5.55l1.56,2c-2.61-3.46-4-7.49-6.25-11.15A24.58,24.58,0,0,0,538,63.44a19.28,19.28,0,0,0-9.26-3.16,15.33,15.33,0,0,0-9.25,2.13,16.36,16.36,0,0,0-7,9.21c-1.88,5.65,0,11.16.84,16.76L513,85.72a14.43,14.43,0,0,1,.07,3.15l.36-2.66a10.37,10.37,0,0,1-.7,2.58l1-2.39a11.57,11.57,0,0,1-1.08,1.83l1.56-2a12.25,12.25,0,0,1-2.28,2.27l2-1.56a15.46,15.46,0,0,1-2.84,1.65l2.39-1a17.64,17.64,0,0,1-4.34,1.17l2.66-.35a44.77,44.77,0,0,1-10.28-.26l8.64,15a14.24,14.24,0,0,0,2.21-8.23,14.43,14.43,0,0,0-.74-4.2,17.27,17.27,0,0,0-3.33-5.6l-9.72,16.71a18.85,18.85,0,0,0,10.4,0c2-.5,4-1.27,6.06-1.62l-2.66.36a12.17,12.17,0,0,1,3.19,0l-2.66-.36a14.4,14.4,0,0,1,3,.87l-2.39-1a26.5,26.5,0,0,1,5.57,3.41l-2-1.56a47.11,47.11,0,0,1,8,7.44l-1.56-2a16.16,16.16,0,0,1,2,3.39l-1-2.39a11.28,11.28,0,0,1,.64,2.27l-.36-2.65a10.7,10.7,0,0,1,0,2.53l.36-2.66a10.78,10.78,0,0,1-.63,2.42l1-2.39a8.82,8.82,0,0,1-.9,1.58l1.57-2a7.39,7.39,0,0,1-1.24,1.26l2-1.56a7.18,7.18,0,0,1-1.29.74l2.39-1c-.19.07-.39.14-.58.19l9.73,16.72a15.37,15.37,0,0,0,3.22-5.52,13,13,0,0,0,.54-4.25,13.45,13.45,0,0,0-4.23-9.57l-9.73,16.71a34.07,34.07,0,0,0,11.64,2.23,33.05,33.05,0,0,0,11.67-1.75,15.39,15.39,0,0,0,8.35-6.21,12.5,12.5,0,0,0,1.13-10.33,15.31,15.31,0,0,0-6.38-8c-1.91-1.24-4.2-1.85-6.31-2.71l2.39,1a23.3,23.3,0,0,1-5-2.93l2,1.57A33,33,0,0,1,541,88.23l1.56,2a79.94,79.94,0,0,1-6-9.8,31.59,31.59,0,0,0-4.81-6.65,23.29,23.29,0,0,0-8.52-5.31c-4.48-1.75-9.54-1.83-14.28-2.19l-14.63-1.13a10,10,0,0,0-7.07,17.07,11.16,11.16,0,0,0,7.07,2.93Z"/><path class="cls-2" d="M499.68,68.07c5.23,0,10.24-4.6,10-10a10.18,10.18,0,0,0-10-10c-5.23,0-10.25,4.6-10,10a10.17,10.17,0,0,0,10,10Z"/><path class="cls-2" d="M507.52,73c5.23,0,10.24-4.6,10-10a10.17,10.17,0,0,0-10-10c-5.23,0-10.24,4.6-10,10a10.17,10.17,0,0,0,10,10Z"/><path class="cls-2" d="M506.05,70.52c5.23,0,10.24-4.6,10-10a10.17,10.17,0,0,0-10-10c-5.23,0-10.24,4.6-10,10a10.17,10.17,0,0,0,10,10Z"/><path class="cls-2" d="M495.75,67.58c5.24,0,10.25-4.6,10-10a10.17,10.17,0,0,0-10-10c-5.23,0-10.24,4.6-10,10a10.18,10.18,0,0,0,10,10Z"/><path class="cls-2" d="M554.58,99.93c5.23,0,10.24-4.6,10-10a10.18,10.18,0,0,0-10-10c-5.23,0-10.24,4.6-10,10a10.17,10.17,0,0,0,10,10Z"/><path class="cls-2" d="M562.91,100.42c5.23,0,10.24-4.6,10-10a10.17,10.17,0,0,0-10-10c-5.23,0-10.24,4.6-10,10a10.18,10.18,0,0,0,10,10Z"/><path class="cls-2" d="M562,97.14c.65,2.32,2.13,4.09,3.1,6.24l-.51-1.19a5.94,5.94,0,0,1,.44,1.49l-.18-1.33c.11.93-.07,1.86,0,2.8a11.34,11.34,0,0,0,.92,4.07,23.2,23.2,0,0,0,3.64,5.58,5,5,0,0,0,3.53,1.46,5.1,5.1,0,0,0,3.54-1.46,5,5,0,0,0,1.46-3.54,5.75,5.75,0,0,0-1.46-3.53l-.79-1,.79,1a14,14,0,0,1-1.83-3l.51,1.19a7.74,7.74,0,0,1-.45-1.65l.18,1.33c-.1-1,.09-2,0-2.93a11.72,11.72,0,0,0-1.16-4.38c-.66-1.45-1.67-2.72-2.3-4.19l.5,1.2c-.11-.29-.2-.57-.29-.86A5,5,0,0,0,562,97.14Z"/><path class="cls-2" d="M566,98.12c.83,3.09,1.55,6.2,2.14,9.34.29,1.57.56,3.14.79,4.72,0,.07.21,1.61.08.57l.12,1c.11.87.2,1.74.29,2.62.16,1.59.28,3.18.38,4.77,0,.8.08,1.6.11,2.39,0,.1,0,1,0,1-.42-.22.85-1.67.89-1.7a2.56,2.56,0,0,1,1.83-1c-.88.11.68.19.15,0-.71-.19-1.43-.33-2.14-.5l-4.94-1.2c-2.54-.61-5.54.81-6.15,3.49a5.08,5.08,0,0,0,3.49,6.16l5.64,1.36a12.32,12.32,0,0,0,6.23.33c3.06-.83,4.7-3.66,5-6.63a34.42,34.42,0,0,0-.23-5.65,128,128,0,0,0-4-23.72A5,5,0,0,0,566,98.12Z"/><path class="cls-2" d="M536.44,71.4a5,5,0,1,0-5-5,5.05,5.05,0,0,0,5,5Z"/><path class="cls-2" d="M525.17,129.25a5,5,0,1,0-5-5,5.06,5.06,0,0,0,5,5Z"/><path class="cls-2" d="M530.56,131.21a5,5,0,1,0-5-5,5.06,5.06,0,0,0,5,5Z"/><path class="cls-2" d="M537.91,131.21a5,5,0,1,0-5-5,5.05,5.05,0,0,0,5,5Z"/><path class="cls-2" d="M545.13,130.06a36.84,36.84,0,0,1,6.49-1.51l-1.32.18a36.31,36.31,0,0,1,7.73-.17,5,5,0,0,0,3.53-1.46,5,5,0,0,0,0-7.07,5.61,5.61,0,0,0-3.53-1.47,39.46,39.46,0,0,0-15.56,1.85,5.3,5.3,0,0,0-3,2.3,5.1,5.1,0,0,0-.5,3.86c.8,2.47,3.49,4.37,6.15,3.49Z"/><path class="cls-2" d="M568.79,136.11a5,5,0,1,0-5-5,5,5,0,0,0,5,5Z"/><path class="cls-2" d="M574.19,136.6a5,5,0,1,0-5-5,5.06,5.06,0,0,0,5,5Z"/><path class="cls-2" d="M568.3,138.56a5,5,0,1,0-5-5,5.05,5.05,0,0,0,5,5Z"/><path class="cls-2" d="M566.34,141a5,5,0,1,0-5-5,5.05,5.05,0,0,0,5,5Z"/><path class="cls-2" d="M570.75,139.05a5,5,0,1,0-5-5,5,5,0,0,0,5,5Z"/><path class="cls-2" d="M581.42,131.94a12.91,12.91,0,0,0,.32-2.22,4.49,4.49,0,0,0,0-.9,13.29,13.29,0,0,0-.34-2.16,12.36,12.36,0,0,0-.83-2,3.89,3.89,0,0,0-1.29-1.41,5.18,5.18,0,0,0-5.55-.39l-1,.78a5.13,5.13,0,0,0-1.28,2.21l-.18,1.33a5,5,0,0,0,.68,2.52,2.39,2.39,0,0,1,.13.28l-.5-1.2a5.64,5.64,0,0,1,.35,1.28l-.18-1.33a5.31,5.31,0,0,1,0,1.38l.18-1.33c0,.18-.06.35-.1.53a5.62,5.62,0,0,0,.5,3.85,3.86,3.86,0,0,0,1.29,1.4,3.74,3.74,0,0,0,1.7.9l1.33.18a5,5,0,0,0,2.52-.68l1-.79a5,5,0,0,0,1.29-2.2Z"/><path class="cls-2" d="M571.74,97.87a5,5,0,1,0-5-5,5.06,5.06,0,0,0,5,5Z"/><path class="cls-2" d="M533.5,130.72a5,5,0,1,0-5-5,5.05,5.05,0,0,0,5,5Z"/><path class="cls-2" d="M551.15,130.23a5,5,0,1,0-5-5,5.06,5.06,0,0,0,5,5Z"/><path class="cls-2" d="M102.21,118.32l-8.32-.47a5,5,0,0,0-3.54,1.46A5.18,5.18,0,0,0,89,122.18a5,5,0,0,0,3.58,5.49,60.63,60.63,0,0,0,12.51,1.6,5,5,0,1,0,0-10A55.79,55.79,0,0,1,99,118.8l1.33.18q-2.58-.36-5.12-1l-1.33,9.83,8.32.47a5,5,0,0,0,0-10Z"/><path class="cls-2" d="M123.32,128.27l.19-.18-1,.79a2.39,2.39,0,0,1,.34-.21l-1.19.5a2.27,2.27,0,0,1,.51-.14l-1.33.18a1.14,1.14,0,0,1,.26,0v-10a7.6,7.6,0,0,0-2,.32,7.62,7.62,0,0,0-4.87,5,5.1,5.1,0,0,0,.51,3.86,4.92,4.92,0,0,0,3,2.29,14.18,14.18,0,0,0,3.61.35,14.46,14.46,0,0,0,3.64-.62,14.24,14.24,0,0,0,6.08-3.77,5.27,5.27,0,0,0,1.46-3.54,5,5,0,0,0-5-5,5,5,0,0,0-3.53,1.46,9.14,9.14,0,0,1-1.12,1l1-.78a9.53,9.53,0,0,1-2,1.16l1.19-.51a9.91,9.91,0,0,1-2.45.68L122,121a9.75,9.75,0,0,1-2.29,0l1.33.18-.63-.11,3.5,6.15c0-.11.07-.22.11-.33l-.5,1.19a3.26,3.26,0,0,1,.24-.4l-.78,1a3.16,3.16,0,0,1,.4-.42l-1,.78a2.55,2.55,0,0,1,.5-.3l-1.19.5a2.6,2.6,0,0,1,.56-.17l-1.33.18.23,0a5.37,5.37,0,0,0,3.54-1.46,5,5,0,0,0,0-7.07,5.15,5.15,0,0,0-3.54-1.47,7,7,0,0,0-4.84,2,5.15,5.15,0,0,0-1.47,3.54,5,5,0,0,0,5,5,5.28,5.28,0,0,0,3.54-1.47Z"/><path class="cls-2" d="M86,140.47c3.22,0,3.22-5,0-5s-3.22,5,0,5Z"/><path class="cls-2" d="M87.91,141c3.22,0,3.22-5,0-5s-3.22,5,0,5Z"/><path class="cls-2" d="M84,140c3.22,0,3.22-5,0-5s-3.22,5,0,5Z"/><path class="cls-2" d="M75.66,134.1c3.21,0,3.22-5,0-5s-3.23,5,0,5Z"/><path class="cls-2" d="M77.13,131.65c3.21,0,3.22-5,0-5s-3.23,5,0,5Z"/><path class="cls-2" d="M88.4,140c3.22,0,3.22-5,0-5s-3.22,5,0,5Z"/><path class="cls-2" d="M86.93,133.12c3.22,0,3.22-5,0-5s-3.22,5,0,5Z"/><path class="cls-2" d="M86,87c3.22,0,3.22-5,0-5s-3.22,5,0,5Z"/><path class="cls-2" d="M89.38,85.08c3.22,0,3.22-5,0-5s-3.22,5,0,5Z"/><path class="cls-2" d="M87.42,85.57c3.22,0,3.22-5,0-5s-3.22,5,0,5Z"/><path class="cls-2" d="M101.64,85.57c3.21,0,3.22-5,0-5s-3.23,5,0,5Z"/></g><g id="Banner"><text class="cls-3" transform="translate(68.42 85.35)">E2222222G</text></g><g id="Text"><text class="cls-4" transform="translate(245.29 77)">Victory!</text></g></svg>